<svg width="1200" height="630" viewBox="0 0 1200 630" fill="none" xmlns="http://www.w3.org/2000/svg">
  <rect width="1200" height="630" fill="#1C2332"/>
  <rect width="1200" height="630" fill="url(#bg)"/>
  <circle cx="996" cy="116" r="156" fill="url(#sunGlow)" opacity="0.55"/>
  <circle cx="972" cy="104" r="58" fill="#F3C15B"/>
  <g opacity="0.18">
    <path d="M78 464C218 348 396 322 548 382C688 438 817 432 928 372C1037 313 1110 249 1180 174" stroke="#FFFFFF" stroke-width="16" stroke-linecap="round"/>
    <path d="M78 520C240 396 394 392 546 444C672 486 792 484 898 432C990 386 1076 321 1146 254" stroke="#FFFFFF" stroke-width="10" stroke-linecap="round"/>
  </g>
  <rect x="78" y="76" width="576" height="80" rx="28" fill="rgba(32,39,54,0.92)" stroke="rgba(255,255,255,0.12)"/>
  <path d="M137 94h-6.24c1.32-2.2 2.12-4.72 2.2-7.44.16-4.12-1.72-7.96-4.64-10.84-6.16-6.16-10.96-6.24-15.28-5.16A18.46 18.46 0 0 0 101 66.08c-7.56 0-14.04 4.44-17.08 10.84C77.6 79.04 73 84.96 73 92c0 7.44 5.12 13.64 12 15.44V134c0 4.4 3.6 8 8 8h28c4.4 0 8-3.6 8-8h8c4.4 0 8-3.6 8-8v-24c0-4.4-3.6-8-8-8ZM89 100c-4.4 0-8-3.6-8-8 0-3.4 2.2-6.4 5.48-7.52l3.2-1.08 1.44-3.04c1.76-3.92 5.52-6.32 9.76-6.32 3.16 0 5.56 1.4 6.96 2.6l3.12 2.6s2.56-1.2 5.88-1.2c4.4 0 8 3.6 8 8H113.8C99.68 86.04 97.6 100 89 100Zm48 28h-8v-24h8v24Z" fill="#E7A31A"/>
  <text x="182" y="125" fill="#FFFFFF" font-family="Inter, Arial, sans-serif" font-size="44" font-weight="700">Sunny Pubs in Ireland</text>
  <text x="78" y="256" fill="#FFFFFF" font-family="Inter, Arial, sans-serif" font-size="84" font-weight="700">Find pubs with sun</text>
  <text x="78" y="340" fill="#FFFFFF" font-family="Inter, Arial, sans-serif" font-size="84" font-weight="700">on their doors</text>
  <text x="80" y="418" fill="rgba(255,255,255,0.72)" font-family="Inter, Arial, sans-serif" font-size="34" font-weight="500">Live forecast-powered pub sunshine, route planning, and city-wide views.</text>
  <g transform="translate(734 376)">
    <rect width="360" height="170" rx="28" fill="rgba(32,39,54,0.96)" stroke="rgba(255,255,255,0.1)"/>
    <text x="34" y="50" fill="#FFFFFF" font-family="Inter, Arial, sans-serif" font-size="32" font-weight="700">Follow the sun</text>
    <text x="34" y="88" fill="rgba(255,255,255,0.72)" font-family="Inter, Arial, sans-serif" font-size="22" font-weight="500">Stay 14:20 → 15:05 at</text>
    <text x="34" y="122" fill="#FFFFFF" font-family="Inter, Arial, sans-serif" font-size="30" font-weight="700">The Long Hall</text>
    <rect x="34" y="132" width="140" height="20" rx="10" fill="rgba(231,163,26,0.18)"/>
    <rect x="34" y="132" width="96" height="20" rx="10" fill="#E7A31A"/>
  </g>
  <defs>
    <linearGradient id="bg" x1="87" y1="40" x2="1112" y2="630" gradientUnits="userSpaceOnUse">
      <stop stop-color="#252D3F"/>
      <stop offset="1" stop-color="#131926"/>
    </linearGradient>
    <radialGradient id="sunGlow" cx="0" cy="0" r="1" gradientUnits="userSpaceOnUse" gradientTransform="translate(996 116) rotate(90) scale(156)">
      <stop stop-color="#F3C15B"/>
      <stop offset="1" stop-color="#F3C15B" stop-opacity="0"/>
    </radialGradient>
  </defs>
</svg>
